<?xml version="1.0" encoding="iso-8859-1"?>
<!-- Generator: Adobe Illustrator 19.0.0, SVG Export Plug-In . SVG Version: 6.00 Build 0)  -->
<svg version="1.1" id="Capa_1" xmlns="http://www.w3.org/2000/svg" xmlns:xlink="http://www.w3.org/1999/xlink" x="0px" y="0px"
	 viewBox="0 0 512.173 512.173" style="enable-background:new 0 0 512.173 512.173;" xml:space="preserve">
<g transform="translate(-1)">
	<g>
		<g>
			<path d="M513.086,384.086h-512v22.437c-1.237,16.481,10.97,30.91,27.429,32.421h457.143
				c16.458-1.511,28.665-15.939,27.428-32.421V384.086z"/>
			<path d="M101.658,238.715c-21.27,4.374-36.544,23.085-36.571,44.8c0.044,5.154,0.971,10.263,2.743,15.104l33.829-20.279V238.715z
				"/>
			<path d="M77.246,314.308c15.052,16.664,40.044,19.777,58.725,7.314l-26.587-26.587L77.246,314.308z"/>
			<rect x="193.086" y="457.229" width="128" height="18.286"/>
			<path d="M119.943,238.715v41.006l28.955,28.955c8.4-12.653,9.954-28.656,4.146-42.689
				C147.237,251.955,134.828,241.731,119.943,238.715z"/>
			<path d="M375.943,493.801H138.229c-10.099,0-18.286,8.187-18.286,18.286h274.286
				C394.229,501.987,386.042,493.801,375.943,493.801z"/>
			<rect x="439.943" y="118.943" width="18.286" height="27.429"/>
			<path d="M1.086,365.801h512V32.498c1.237-16.479-10.971-30.906-27.428-32.411H28.515C12.058,1.592-0.15,16.018,1.086,32.498
				V365.801z M110.801,347.515c-25.886,0-49.222-15.593-59.128-39.508c-9.906-23.915-4.43-51.443,13.873-69.747
				c18.304-18.304,45.831-23.779,69.747-13.873s39.508,33.243,39.508,59.128C174.76,318.844,146.13,347.475,110.801,347.515z
				 M174.801,188.722c-0.09,6.984-5.815,12.579-12.8,12.507h-102.4c-6.98,0.086-12.71-5.5-12.8-12.48v-69.806
				c0-5.049,4.093-9.143,9.143-9.143c5.049,0,9.143,4.093,9.143,9.143v64h91.429v-64c0-5.049,4.093-9.143,9.143-9.143
				c5.049,0,9.143,4.093,9.143,9.143V188.722z M238.801,27.515c0-5.049,4.093-9.143,9.143-9.143c5.049,0,9.143,4.093,9.143,9.143
				v109.714c0,5.049,4.093,9.143,9.143,9.143h9.143V45.801c0-10.099,8.187-18.286,18.286-18.286h18.286
				c10.099,0,18.286,8.187,18.286,18.286v100.571h18.286V89.046c0.01-8.731,7.086-15.807,15.817-15.817h23.223
				c8.731,0.01,15.807,7.086,15.817,15.817v57.326h18.286v-31.296c0.005-7.961,6.457-14.413,14.418-14.418h26.021
				c7.961,0.005,14.413,6.457,14.418,14.418v31.296c5.049,0,9.143,4.093,9.143,9.143s-4.093,9.143-9.143,9.143H266.229
				c-15.148,0-27.429-12.28-27.429-27.429V27.515z M238.801,210.372c0-5.049,4.093-9.143,9.143-9.143
				c5.049,0,9.143,4.093,9.143,9.143v69.358l17.179-17.179c10.856-10.36,27.937-10.36,38.793,0l10.706,10.715
				c3.57,3.569,9.358,3.569,12.928,0l38.144-38.144c10.853-10.358,27.931-10.358,38.784,0l10.715,10.715
				c3.57,3.569,9.358,3.569,12.928,0l32.786-32.777c3.587-3.465,9.29-3.415,12.817,0.111c3.527,3.527,3.576,9.229,0.111,12.817
				l-32.786,32.786c-10.723,10.677-28.061,10.677-38.784,0l-10.715-10.725c-3.612-3.467-9.316-3.467-12.928,0l-38.144,38.144
				c-10.711,10.708-28.073,10.708-38.784,0l-10.715-10.715c-3.612-3.467-9.316-3.467-12.928,0l-30.107,30.107v14.501
				c0,5.049,4.093,9.143,9.143,9.143h210.286c5.049,0,9.143,4.093,9.143,9.143c0,5.049-4.093,9.143-9.143,9.143H266.229
				c-15.148,0-27.429-12.28-27.429-27.429V210.372z M31.559,84.703l15.241-13.641v-20.69c0-5.049,4.093-9.143,9.143-9.143
				c5.049,0,9.143,4.093,9.143,9.143v4.315l36.8-32.914c5.033-4.436,12.563-4.495,17.664-0.137l70.491,63.086
				c3.75,3.366,4.069,9.132,0.713,12.891c-3.368,3.762-9.148,4.081-12.91,0.713l-67.045-60.014L43.756,98.326
				c-3.768,3.311-9.501,2.968-12.847-0.769S27.853,88.084,31.559,84.703z"/>
			<rect x="366.801" y="91.515" width="18.286" height="54.857"/>
			<rect x="293.658" y="45.801" width="18.286" height="100.571"/>
		</g>
	</g>
</g>
<g>
</g>
<g>
</g>
<g>
</g>
<g>
</g>
<g>
</g>
<g>
</g>
<g>
</g>
<g>
</g>
<g>
</g>
<g>
</g>
<g>
</g>
<g>
</g>
<g>
</g>
<g>
</g>
<g>
</g>
</svg>
